<svg xmlns="http://www.w3.org/2000/svg" enable-background="new 0 0 100 100" viewBox="0 0 100 100"><path fill="#727272" d="M57.513 32.288h-.879c-.32 0-.58.26-.58.58s.26.58.58.58h.879c.325 0 .58-.255.58-.58C58.093 32.548 57.833 32.288 57.513 32.288zM43.849 32.288h-.972c-.32 0-.58.26-.58.58s.26.58.58.58h.972c.32 0 .58-.26.58-.58S44.168 32.288 43.849 32.288z"/><path fill="#ffc8bb" d="M34.126,39.206c-0.087-0.488-0.144-0.865-0.186-1.223c-0.106-0.868-0.16-1.752-0.16-2.627
			c0-1.277,0.118-2.572,0.349-3.849l0.026-0.322l-0.325-0.021c-0.017-0.001-0.035-0.002-0.051-0.002
			c-0.911,0-1.774,0.285-2.496,0.823l-0.117,0.09v0.003c-0.992,0.791-1.58,2.005-1.58,3.278c0,2.312,1.881,4.193,4.193,4.193
			c0.017,0,0.034-0.001,0.061-0.003h0.346L34.126,39.206z"/><path fill="#5cb1cf" d="M61.022,10.742c-3.138-1.913-6.755-2.925-10.46-2.925c-10.947,0-19.853,8.747-19.853,19.5
			c0,1.43,0.16,2.864,0.477,4.263l0.089,0.393l0.344-0.209c0.649-0.394,1.396-0.602,2.161-0.602c0.032,0,0.064,0.002,0.096,0.004
			l0.312,0.016l0.05-0.243c0.325-1.561,0.826-3.071,1.489-4.487l0.012-0.017c1.305,0.328,2.722,0.495,4.212,0.495
			c2.984,0,6.147-0.664,9.149-1.919c2.536-1.061,4.887-2.519,6.8-4.218c0.68-0.603,1.307-1.239,1.863-1.889
			c2.177-2.526,3.385-5.336,3.4-7.913l0.001-0.164L61.022,10.742z"/><path fill="#278db1" d="M61.605,11.11l-0.425-0.28l-0.024,0.508c-0.059,1.236-0.38,2.513-0.955,3.796
			c-0.578,1.297-1.398,2.565-2.437,3.769c-0.301,0.35-0.59,0.665-0.883,0.959l-0.032,0.029c-0.249,0.252-0.517,0.507-0.818,0.781
			l-0.13,0.118l0.044,0.17c0.19,0.734,0.428,1.453,0.708,2.137c1.919,4.68,5.702,7.948,9.2,7.948c0.099,0,0.197-0.003,0.289-0.005
			l0.082,0.125l0.15,0.005c1.099,0.04,2.121,0.501,2.88,1.299l0.355,0.373l0.135-0.497c0.446-1.635,0.671-3.327,0.671-5.03
			C70.415,20.799,67.122,14.74,61.605,11.11z"/><path fill="#adadad" d="M63.024,67.457c-3.813,0-6.916,3.102-6.916,6.916s3.102,6.916,6.916,6.916s6.916-3.102,6.916-6.916
			S66.837,67.457,63.024,67.457z"/><path fill="#ffc8bb" d="M66.219,31.162c-0.017,0-0.034,0.001-0.061,0.003h-0.346l0.061,0.341
			c0.23,1.292,0.346,2.587,0.346,3.85c0,1.277-0.117,2.572-0.349,3.849l-0.047,0.343h0.347c0.017,0.001,0.033,0.002,0.049,0.002
			c2.314,0,4.196-1.881,4.196-4.193C70.415,33.044,68.533,31.162,66.219,31.162z"/><path fill="#e3e5e5" d="M63.024,71.3c-1.695,0-3.073,1.379-3.073,3.073c0,1.695,1.379,3.073,3.073,3.073
			c1.695,0,3.073-1.379,3.073-3.073C66.097,72.678,64.718,71.3,63.024,71.3z"/><path fill="#ffc8bb" d="M65.834,31.273l-0.043-0.224l-0.228-0.011c-3.453-0.17-7.033-3.361-8.91-7.94
			c-0.244-0.597-0.458-1.224-0.635-1.864l-0.121-0.438l-0.346,0.295c-1.877,1.598-4.048,2.918-6.451,3.923
			c-0.321,0.132-0.657,0.263-1.026,0.399l-0.3,0.108c-0.261,0.092-0.522,0.181-0.779,0.263c-0.05,0.015-0.099,0.031-0.147,0.047
			l-0.138,0.044c-0.376,0.116-0.714,0.212-1.036,0.296l-0.127,0.031c-0.307,0.077-0.614,0.149-0.919,0.215l-0.3,0.06
			c-0.272,0.055-0.548,0.106-0.813,0.151c-0.046,0.007-0.091,0.014-0.135,0.021l-0.106,0.017c-0.348,0.055-0.695,0.101-1.029,0.137
			l-0.187,0.018c-0.286,0.029-0.567,0.052-0.864,0.07c-0.09,0.005-0.177,0.01-0.27,0.013c-0.341,0.017-0.645,0.009-0.925,0.026
			c-0.016,0.001-0.033,0.002-0.036,0.003l-0.052-0.003c-0.336,0-0.661-0.008-0.984-0.025l-0.235-0.018
			c-0.254-0.017-0.504-0.037-0.758-0.066c-0.09-0.008-0.18-0.02-0.271-0.031c-0.273-0.032-0.56-0.075-0.846-0.124l-0.092-0.015
			c-0.257-0.046-0.513-0.1-0.764-0.157L35.73,26.44l-0.098,0.215c-0.653,1.439-1.14,2.962-1.447,4.526
			c-0.269,1.358-0.406,2.762-0.406,4.174c0,0.883,0.053,1.767,0.159,2.628c0.066,0.529,0.149,1.049,0.247,1.546
			c0.826,4.194,2.877,7.95,5.777,10.576l0.045,0.042l0.052,0.019l0.025,0.048l0.04,0.036c2.843,2.51,6.258,3.837,9.875,3.837
			c3.778,0,7.456-1.527,10.356-4.3l0.083-0.077c2.63-2.551,4.461-5.937,5.297-9.794l0.003-0.015c0-0.001,0-0.002,0.001-0.003
			l0.076-0.368c0.267-1.362,0.403-2.767,0.403-4.174C66.219,33.986,66.089,32.612,65.834,31.273z"/><path fill="#f4ad9f" d="M59.905,50.205c-2.858,2.54-6.283,3.882-9.905,3.882c-3.363,0-6.724-1.25-9.463-3.521l-0.475-0.394
			v4.053l10.164,11.048l10.085-10.965l0.077-0.083v-4.451L59.905,50.205z"/><path fill="#fff" d="M41.817,85.683l-0.014-0.03c-0.074-0.144-7.21-15.071-3.626-30.488l0.117-0.502l-10.492,3.44
			c-4.659,1.53-7.789,5.851-7.789,10.753v23.328h24.316L41.817,85.683z"/><path fill="#9dd0e2" d="M63.025,55.371l0.069-0.253l-2.71-0.89l-10.16,11.044L40.099,54.27l-0.272-0.266l-0.205,0.221
			l-1.965,0.646l-0.042,0.148c-4.418,15.575,3.527,30.618,3.603,30.759l3.154,6.405h11.256l3.153-6.408
			c0.007-0.017,0.745-1.705,1.649-4.544l0.08-0.252l-0.243-0.103c-2.616-1.112-4.307-3.665-4.307-6.505
			c0-3.894,3.168-7.062,7.062-7.062h0.314l0.024-0.264C63.735,62.891,63.624,58.97,63.025,55.371z"/><path fill="#fff" d="M72.196,58.103l-9.819-3.109l0.075,0.465c0.583,3.605,0.694,7.486,0.331,11.536l-0.026,0.29
			l0.29,0.025c3.816,0.324,7.04,3.558,7.04,7.063c0,3.895-3.169,7.064-7.064,7.064c-0.53,0-1.365-0.333-2.036-0.601
			c-0.272-0.108-0.528-0.211-0.74-0.281l-0.279-0.093l-0.089,0.28c-0.894,2.799-1.723,4.991-1.731,5.012l-2.476,6.431h24.313V68.857
			C79.985,63.954,76.856,59.633,72.196,58.103z"/><path d="M56.634 33.739h.88c.48 0 .87-.39.87-.87 0-.48-.39-.87-.87-.87h-.88c-.48 0-.87.39-.87.87C55.764 33.349 56.154 33.739 56.634 33.739zM42.878 33.739h.971c.48 0 .87-.39.87-.87 0-.48-.39-.87-.87-.87h-.971c-.48 0-.87.39-.87.87C42.008 33.349 42.397 33.739 42.878 33.739zM47.033 45.002c0 .48.39.87.87.87h4.194c.48 0 .87-.39.87-.87s-.39-.87-.87-.87h-4.194C47.423 44.132 47.033 44.521 47.033 45.002zM47.51 39.878h3.512c.48 0 .87-.39.87-.87s-.39-.87-.87-.87h-2.245l1.146-2.976c.173-.448-.051-.952-.499-1.124-.447-.172-.952.051-1.124.499l-1.602 4.159c-.103.267-.068.569.095.805C46.955 39.737 47.223 39.878 47.51 39.878z"/><path d="M72.47,57.278l-5.52-1.811v-0.695c0-2.861-1.263-5.575-3.412-7.427c1.355-2.016,2.38-4.36,2.976-6.94
			c2.655-0.153,4.77-2.356,4.77-5.049c0-0.963-0.275-1.861-0.744-2.629c0.492-1.754,0.744-3.571,0.744-5.409
			c0-7.007-3.59-13.429-9.606-17.194c-0.028-0.021-0.058-0.039-0.089-0.056c-3.301-2.042-7.113-3.122-11.027-3.122
			c-11.427,0-20.724,9.139-20.724,20.372c0,1.468,0.16,2.928,0.476,4.349c-1.009,0.95-1.597,2.291-1.597,3.689
			c0,2.692,2.114,4.894,4.768,5.049c0.583,2.514,1.609,4.873,2.992,6.929c-2.157,1.851-3.426,4.571-3.426,7.438v0.695l-5.52,1.811
			c-5.017,1.646-8.387,6.299-8.387,11.578v23.328c0,0.48,0.39,0.87,0.87,0.87H44.37c0.001,0,0.001,0,0.002,0c0,0,0.001,0,0.001,0
			h11.253c0,0,0.001,0,0.001,0c0.001,0,0.001,0,0.002,0h24.357c0.48,0,0.87-0.39,0.87-0.87V68.856
			C80.857,63.576,77.486,58.923,72.47,57.278z M65.21,54.772v0.124l-3.953-1.297v-3.476c0.434-0.434,0.849-0.894,1.243-1.377
			C64.208,50.266,65.21,52.461,65.21,54.772z M38.452,47.159c-0.024-0.055-0.053-0.108-0.089-0.158
			c-0.04-0.056-0.087-0.104-0.137-0.148c-1.515-2.108-2.628-4.65-3.187-7.492c-0.096-0.484-0.175-0.983-0.235-1.484
			c-0.102-0.83-0.153-1.679-0.153-2.522c0-1.35,0.131-2.698,0.388-4.007c0.266-1.351,0.669-2.662,1.199-3.908
			c0.037,0.008,0.076,0.013,0.113,0.02c0.174,0.034,0.35,0.066,0.528,0.095c0.057,0.009,0.114,0.019,0.171,0.028
			c0.224,0.034,0.449,0.065,0.677,0.091c0.053,0.006,0.108,0.011,0.161,0.016c0.183,0.019,0.366,0.036,0.551,0.05
			c0.072,0.005,0.143,0.011,0.215,0.015c0.217,0.014,0.435,0.025,0.655,0.032c0.02,0.001,0.04,0.002,0.059,0.003
			c0.192,0.005,0.385,0.008,0.578,0.008c0.028,0,0.056-0.002,0.084-0.002c0.343-0.001,0.689-0.01,1.037-0.028
			c0.055-0.003,0.111-0.008,0.167-0.011c0.299-0.018,0.599-0.042,0.9-0.072c0.094-0.009,0.188-0.019,0.282-0.029
			c0.331-0.037,0.663-0.08,0.997-0.131c0.024-0.004,0.047-0.006,0.071-0.01c0.356-0.056,0.713-0.123,1.071-0.196
			c0.093-0.019,0.186-0.039,0.278-0.059c0.288-0.062,0.577-0.129,0.865-0.202c0.08-0.02,0.161-0.039,0.241-0.06
			c0.355-0.093,0.709-0.194,1.063-0.303c0.073-0.022,0.145-0.047,0.218-0.07c0.29-0.092,0.579-0.189,0.867-0.292
			c0.098-0.035,0.195-0.069,0.292-0.105c0.353-0.13,0.705-0.266,1.055-0.412c2.215-0.926,4.226-2.105,6.002-3.506
			c0.125,0.375,0.262,0.749,0.413,1.118c1.929,4.707,5.593,8.007,9.203,8.439c0.194,1.149,0.298,2.319,0.298,3.489
			c0,1.35-0.131,2.698-0.388,4.007c-0.022,0.113-0.046,0.225-0.07,0.337c-0.002,0.009-0.004,0.017-0.005,0.026
			c-0.585,2.707-1.683,5.136-3.153,7.161c-0.035,0.034-0.069,0.07-0.098,0.112c-0.02,0.028-0.034,0.058-0.05,0.087
			c-0.525,0.702-1.094,1.354-1.704,1.95c-0.06,0.043-0.113,0.095-0.161,0.152c-2.67,2.539-6.07,4.03-9.721,4.03
			c-3.449,0-6.655-1.309-9.238-3.566c-0.072-0.099-0.166-0.181-0.273-0.242C39.753,48.736,39.071,47.982,38.452,47.159z
			 M40.93,51.971c2.703,1.938,5.855,2.987,9.07,2.987c3.493,0,6.777-1.204,9.516-3.305v2.234l-9.292,10.101L40.93,53.887V51.971z
			 M66.854,38.617c0.157-1.075,0.236-2.168,0.236-3.262c0-1.092-0.079-2.184-0.235-3.262c1.53,0.297,2.689,1.646,2.689,3.262
			C69.544,36.972,68.384,38.32,66.854,38.617z M69.544,27.318c0,1.317-0.141,2.623-0.418,3.897c-0.719-0.506-1.575-0.829-2.5-0.903
			c-0.15-0.099-0.33-0.154-0.523-0.143c-3.18,0.169-6.815-2.941-8.643-7.401c-0.227-0.556-0.422-1.123-0.583-1.69
			c0.556-0.519,1.076-1.057,1.547-1.605h0c0,0,0.001-0.001,0.001-0.001c0,0,0,0,0-0.001c1.934-2.244,3.142-4.706,3.499-7.079
			C66.72,15.904,69.544,21.382,69.544,27.318z M50.562,8.686c3.438,0,6.788,0.909,9.723,2.63c-0.112,2.282-1.229,4.756-3.182,7.023
			c-0.532,0.62-1.132,1.228-1.782,1.806c-1.845,1.638-4.113,3.044-6.559,4.067c-3.006,1.257-6.153,1.887-9.052,1.85
			c-0.791-0.01-1.563-0.07-2.309-0.181c-0.497-0.074-0.983-0.17-1.455-0.288c-0.054-0.014-0.108-0.021-0.162-0.024
			c-0.023-0.001-0.044,0.001-0.067,0.001c-0.031,0.001-0.062,0.001-0.092,0.005c-0.025,0.003-0.05,0.009-0.074,0.014
			c-0.027,0.006-0.053,0.012-0.08,0.02c-0.024,0.008-0.048,0.017-0.071,0.027c-0.025,0.011-0.05,0.022-0.075,0.035
			c-0.022,0.012-0.043,0.024-0.064,0.037c-0.024,0.016-0.047,0.033-0.07,0.051c-0.018,0.015-0.037,0.029-0.054,0.045
			c-0.023,0.021-0.043,0.045-0.063,0.069c-0.014,0.017-0.03,0.032-0.043,0.05c-0.022,0.03-0.04,0.063-0.058,0.096
			c-0.008,0.015-0.018,0.028-0.025,0.043c-0.001,0.001-0.002,0.002-0.002,0.004c-0.631,1.345-1.121,2.768-1.463,4.238
			c-0.556,0.032-1.094,0.152-1.601,0.357c-0.203-1.097-0.306-2.217-0.306-3.342C31.578,17.044,40.094,8.686,50.562,8.686z
			 M30.456,35.356c0-1.063,0.49-2.035,1.347-2.671c0.001-0.001,0.002-0.001,0.003-0.002c0,0,0,0,0.001,0
			c0.399-0.297,0.858-0.494,1.34-0.587c-0.157,1.075-0.236,2.167-0.236,3.26c0,0.913,0.056,1.833,0.166,2.731
			c0.021,0.177,0.048,0.354,0.074,0.531C31.617,38.322,30.456,36.973,30.456,35.356z M34.79,54.772c0-2.316,1.006-4.516,2.723-6.036
			c0.522,0.642,1.081,1.247,1.677,1.806v2.911l-4.4,1.443V54.772z M79.117,91.314h-22.09l2.532-5.142
			c0.212-0.431,0.035-0.953-0.396-1.165c-0.431-0.212-0.953-0.035-1.165,0.396l-2.91,5.91H44.913l-2.91-5.91
			c-0.212-0.431-0.734-0.609-1.165-0.396c-0.431,0.212-0.608,0.734-0.396,1.165l2.532,5.142h-22.09V68.856
			c0-4.526,2.889-8.514,7.189-9.925l4.978-1.633v5.095c-2.875,0.284-5.329,2.228-6.234,5.022l-3.047,9.404
			c-0.304,0.938-0.146,1.934,0.434,2.732c0.58,0.798,1.478,1.256,2.464,1.256c0.48,0,0.87-0.39,0.87-0.87s-0.39-0.87-0.87-0.87
			c-0.423,0-0.808-0.196-1.056-0.539c-0.249-0.342-0.317-0.77-0.186-1.172l3.047-9.405c0.748-2.308,2.881-3.858,5.309-3.858
			c1.189,0,2.324,0.369,3.283,1.067c0.959,0.696,1.659,1.661,2.025,2.791l3.047,9.405c0.131,0.402,0.063,0.829-0.186,1.172
			s-0.634,0.539-1.056,0.539c-0.48,0-0.87,0.39-0.87,0.87s0.39,0.87,0.87,0.87c0.986,0,1.884-0.458,2.464-1.256
			c0.58-0.798,0.738-1.794,0.434-2.731l-3.047-9.405c-0.48-1.482-1.4-2.749-2.658-3.662c-0.983-0.715-2.107-1.163-3.296-1.327
			v-5.699l4.907-1.61l9.887,10.745c0.165,0.179,0.397,0.281,0.64,0.281c0.243,0,0.475-0.102,0.64-0.281l9.781-10.633l4.564,1.497
			v4.317c0,1.751-0.25,3.488-0.745,5.165l-0.102,0.346c-0.436-0.074-0.883-0.115-1.339-0.115c-4.374,0-7.933,3.559-7.933,7.933
			c0,4.374,3.559,7.933,7.933,7.933c4.374,0,7.933-3.559,7.933-7.933c0-3.309-2.037-6.149-4.922-7.338l0.098-0.335
			c0.541-1.836,0.816-3.739,0.816-5.656v-3.746l4.978,1.633c4.3,1.411,7.189,5.399,7.189,9.925V91.314z M69.217,74.373
			c0,3.415-2.778,6.193-6.193,6.193c-3.415,0-6.193-2.778-6.193-6.193c0-3.415,2.778-6.193,6.193-6.193
			C66.439,68.18,69.217,70.958,69.217,74.373z"/><path d="M59.514,74.373c0,1.935,1.574,3.509,3.509,3.509c1.196,0,2.298-0.6,2.949-1.606c0.261-0.404,0.145-0.942-0.258-1.203
			c-0.404-0.26-0.942-0.145-1.203,0.258c-0.328,0.508-0.884,0.81-1.487,0.81c-0.976,0-1.769-0.794-1.769-1.769
			c0-0.976,0.794-1.769,1.769-1.769c0.48,0,0.87-0.39,0.87-0.87s-0.39-0.87-0.87-0.87C61.089,70.864,59.514,72.438,59.514,74.373z"/></svg>